# xmcd
# Track frame offsets:
# 150
# 13947
# 28246
# 44218
# 61101
# 76497
# 87824
# 100093
# 118147
# 133866
# 148218
# 163443
# 180077
# 191862
# 206574
#
# Disc length: 2964 seconds
# Revision: 0
# Processed by: cddbd v1.5.2PL0 Copyright (c) Steve Scherf et al.
# Submitted via: VisiTrax 2.10.3.257 - For more info visit www.synapsa.com
#
DISCID=df0b920f
DTITLE=Lasse Stefanz - Rallarsväng
DYEAR=2008
DGENRE=
TTITLE0=Till Österlen
TTITLE1=Hemmahamn
TTITLE2=En runda i baren (duett med Plura)
TTITLE3=Innan allt är för sent
TTITLE4=Hållplats 31
TTITLE5=He'll have to go
TTITLE6=Kalla det drömmar om du vill
TTITLE7=När skuggorna faller
TTITLE8=Angel Lee
TTITLE9=Hem igen
TTITLE10=Slöseri med kärlek
TTITLE11=Ensam weekend
TTITLE12=Mot lugnare vatten
TTITLE13=Jag lever för livet
TTITLE14=En runda i baren (dansk duett med Bamse)
EXTD=
EXTT0=
EXTT1=
EXTT2=
EXTT3=
EXTT4=
EXTT5=
EXTT6=
EXTT7=
EXTT8=
EXTT9=
EXTT10=
EXTT11=
EXTT12=
EXTT13=
EXTT14=
PLAYORDER=
